<mxfile host="app.diagrams.net" modified="2024-07-31T02:57:03.589Z" agent="Mozilla/5.0 (Windows NT 10.0; Win64; x64) AppleWebKit/537.36 (KHTML, like Gecko) Chrome/127.0.0.0 Safari/537.36" version="24.6.4" etag="MfVrKmXMJ1ztqe57uTBX" type="github">
  <diagram name="PÃ¡gina-1" id="mOB8dTMCQTwOWl4W6rvQ">
    <mxGraphModel>
      <root>
        <mxCell id="0" />
        <mxCell id="1" parent="0" />
      </root>
    </mxGraphModel>
  </diagram>
</mxfile>
